<svg version="1.1" xmlns="http://www.w3.org/2000/svg" viewBox="0 0 1875.980843194858 1056.660714285714" width="3751.961686389716" height="2113.321428571428">
  <!-- svg-source:excalidraw -->
  
  <defs>
    <style class="style-fonts">
      @font-face {
        font-family: "Virgil";
        src: url("https://excalidraw.com/Virgil.woff2");
      }
      @font-face {
        font-family: "Cascadia";
        src: url("https://excalidraw.com/Cascadia.woff2");
      }
      @font-face {
        font-family: "Assistant";
        src: url("https://excalidraw.com/Assistant-Regular.woff2");
      }
    </style>
    
  </defs>
  <rect x="0" y="0" width="1875.980843194858" height="1056.660714285714" fill="#ffffff"></rect><g stroke-linecap="round" transform="translate(10 477.1448412698411) rotate(0 89.25 49.25)"><path d="M24.63 0 C69.53 -0.34, 109.58 0.82, 153.88 0 M24.63 0 C53.62 -0.58, 83.87 1.17, 153.88 0 M153.88 0 C171.81 0.36, 176.85 6.67, 178.5 24.63 M153.88 0 C170.85 -1.08, 179.72 6.64, 178.5 24.63 M178.5 24.63 C180.29 39.39, 179.43 52.07, 178.5 73.88 M178.5 24.63 C179.67 35.43, 177.86 44.69, 178.5 73.88 M178.5 73.88 C180.38 91.35, 170.29 98.42, 153.88 98.5 M178.5 73.88 C177.3 90.51, 171.26 97.56, 153.88 98.5 M153.88 98.5 C117.16 100.9, 82.81 100.25, 24.63 98.5 M153.88 98.5 C108.81 98.5, 64.09 98.85, 24.63 98.5 M24.63 98.5 C6.93 99.72, 0.58 89.24, 0 73.88 M24.63 98.5 C9.32 99.4, -2.23 90, 0 73.88 M0 73.88 C0.38 62.08, 1.47 47.35, 0 24.63 M0 73.88 C-0.78 63.56, -0.34 54.93, 0 24.63 M0 24.63 C1.07 6.79, 8.88 1.05, 24.63 0 M0 24.63 C1.18 10.19, 7.65 0.27, 24.63 0" stroke="#1e1e1e" stroke-width="2" fill="none"></path></g><g transform="translate(35.5400390625 501.3948412698411) rotate(0 63.7099609375 25)"><text x="63.7099609375" y="17.52" font-family="Virgil, Segoe UI Emoji" font-size="20px" fill="#1e1e1e" text-anchor="middle" style="white-space: pre;" direction="ltr" dominant-baseline="alphabetic">Flash Loans </text><text x="63.7099609375" y="42.519999999999996" font-family="Virgil, Segoe UI Emoji" font-size="20px" fill="#1e1e1e" text-anchor="middle" style="white-space: pre;" direction="ltr" dominant-baseline="alphabetic">Events</text></g><g stroke-linecap="round" transform="translate(337.7777777777779 462.85317460317447) rotate(0 119.5 61.75)"><path d="M150 15.5 C170.49 25.9, 193.03 38.34, 209 46.5 M150 15.5 C169.62 26.57, 188.68 35.13, 209 46.5 M209 46.5 C237.37 63.14, 239.79 63.75, 209 77.5 M209 46.5 C237.87 60.58, 239.08 62.52, 209 77.5 M209 77.5 C192.07 86, 172.46 94.89, 150 108 M209 77.5 C189.95 86.31, 172.65 95.68, 150 108 M150 108 C118.92 123.74, 120.59 122.84, 90 108 M150 108 C119.63 122.47, 117.87 125.79, 90 108 M90 108 C72.28 99.01, 52.92 91, 30 77.5 M90 108 C73.4 100.35, 56.86 91.92, 30 77.5 M30 77.5 C0.66 60.5, -1.89 61.12, 30 46.5 M30 77.5 C1.97 62.64, -0.82 60.4, 30 46.5 M30 46.5 C52.1 37.2, 74.32 23.53, 90 15.5 M30 46.5 C42.87 39.4, 56.18 33.75, 90 15.5 M90 15.5 C121.33 -0.53, 119.93 -0.55, 150 15.5 M90 15.5 C120.25 -1.54, 118.57 1.58, 150 15.5" stroke="#1e1e1e" stroke-width="2" fill="none"></path></g><g transform="translate(404.56783209906695 499.72817460317447) rotate(0 52.45994567871094 25)"><text x="52.45994567871094" y="17.52" font-family="Virgil, Segoe UI Emoji" font-size="20px" fill="#1e1e1e" text-anchor="middle" style="white-space: pre;" direction="ltr" dominant-baseline="alphabetic">Categorize</text><text x="52.45994567871094" y="42.519999999999996" font-family="Virgil, Segoe UI Emoji" font-size="20px" fill="#1e1e1e" text-anchor="middle" style="white-space: pre;" direction="ltr" dominant-baseline="alphabetic">Purpose</text></g><g stroke-linecap="round"><g transform="translate(198.0000000000001 525.3440324164569) rotate(0 71.03711669339987 0.6748503807395991)"><path d="M0.82 -0.66 C24.12 -0.49, 116.72 1.56, 140.03 2.01 M-0.22 1.61 C23.44 1.38, 118.96 0.67, 142.29 0.43" stroke="#1e1e1e" stroke-width="2" fill="none"></path></g><g transform="translate(198.0000000000001 525.3440324164569) rotate(0 71.03711669339987 0.6748503807395991)"><path d="M118.87 9.19 C125.16 4.8, 135.46 3.07, 142.29 0.43 M118.87 9.19 C127.03 6.21, 137.67 3.33, 142.29 0.43" stroke="#1e1e1e" stroke-width="2" fill="none"></path></g><g transform="translate(198.0000000000001 525.3440324164569) rotate(0 71.03711669339987 0.6748503807395991)"><path d="M118.72 -7.91 C125.2 -6.86, 135.55 -3.14, 142.29 0.43 M118.72 -7.91 C126.79 -4.26, 137.48 -0.52, 142.29 0.43" stroke="#1e1e1e" stroke-width="2" fill="none"></path></g></g><mask></mask><g stroke-linecap="round"><g transform="translate(586.0086575182604 528.923563458658) rotate(0 639.1696269453906 -2.947584680038858)"><path d="M-0.11 -0.29 C213.35 -1.22, 1066.72 -4.93, 1279.97 -5.6 M-1.63 -1.49 C211.72 -2.24, 1064.95 -3.45, 1278.87 -4.23" stroke="#1e1e1e" stroke-width="2" fill="none"></path></g><g transform="translate(586.0086575182604 528.923563458658) rotate(0 639.1696269453906 -2.947584680038858)"><path d="M1255.4 4.38 C1260.38 1.9, 1265.83 -1.05, 1278.87 -4.23 M1255.4 4.38 C1263.62 0.22, 1272.99 -2.28, 1278.87 -4.23" stroke="#1e1e1e" stroke-width="2" fill="none"></path></g><g transform="translate(586.0086575182604 528.923563458658) rotate(0 639.1696269453906 -2.947584680038858)"><path d="M1255.35 -12.72 C1260.35 -11.22, 1265.81 -10.18, 1278.87 -4.23 M1255.35 -12.72 C1263.66 -10.37, 1273.04 -6.37, 1278.87 -4.23" stroke="#1e1e1e" stroke-width="2" fill="none"></path></g></g><mask></mask><g stroke-linecap="round" transform="translate(569.3551587301592 889.5119047619046) rotate(0 92.75 55.75)"><path d="M109.13 0.22 C121.79 0.76, 136.05 6.16, 147.03 11.11 C158.02 16.05, 168.58 22.99, 175.03 29.89 C181.48 36.79, 185.29 44.67, 185.74 52.51 C186.18 60.34, 183.2 69.31, 177.7 76.91 C172.2 84.51, 162.93 92.73, 152.76 98.08 C142.59 103.44, 129.62 107.11, 116.69 109.06 C103.77 111.01, 88.42 111.02, 75.21 109.76 C62 108.51, 48.1 106.29, 37.45 101.53 C26.8 96.78, 17.41 88.34, 11.32 81.25 C5.23 74.15, 1.4 66.96, 0.91 58.97 C0.43 50.98, 3.14 40.72, 8.42 33.31 C13.71 25.91, 22.68 19.81, 32.62 14.54 C42.56 9.27, 53.45 3.53, 68.08 1.68 C82.71 -0.16, 109.83 2.58, 120.39 3.48 C130.94 4.37, 131.96 6.29, 131.44 7.04 M54.23 4.65 C64.98 0.91, 80.09 0.27, 93.57 0.29 C107.06 0.3, 123.17 0.98, 135.14 4.74 C147.12 8.5, 157.15 16.43, 165.42 22.85 C173.7 29.28, 182.05 35.84, 184.81 43.31 C187.56 50.77, 185.32 59.6, 181.93 67.65 C178.54 75.7, 172.75 84.98, 164.45 91.6 C156.16 98.22, 144.35 103.98, 132.15 107.39 C119.94 110.81, 104.88 112.23, 91.23 112.09 C77.57 111.95, 62.34 110.06, 50.2 106.56 C38.05 103.07, 26.51 97.77, 18.35 91.11 C10.2 84.45, 3.89 74.91, 1.29 66.63 C-1.31 58.34, -0.53 49.23, 2.77 41.4 C6.07 33.56, 12.84 25.71, 21.09 19.62 C29.34 13.52, 46.74 7, 52.26 4.83 C57.77 2.67, 53.32 5.96, 54.18 6.65" stroke="#1971c2" stroke-width="2" fill="none"></path></g><g transform="translate(609.2510462790135 932.8407017107545) rotate(0 52.76995849609375 12.5)"><text x="52.76995849609375" y="17.52" font-family="Virgil, Segoe UI Emoji" font-size="20px" fill="#1971c2" text-anchor="middle" style="white-space: pre;" direction="ltr" dominant-baseline="alphabetic">Swap Debt</text></g><g stroke-linecap="round"><g transform="translate(346.2107064825461 721.8674052680963) rotate(0 -32.196951940474094 4.5367167061377245)"><path d="M0.66 0.9 C-10.21 2.19, -53.68 7.45, -64.61 8.74 M-0.46 0.33 C-11.44 1.77, -54.23 5.8, -65.05 6.83" stroke="#1e1e1e" stroke-width="2" fill="none"></path></g><g transform="translate(346.2107064825461 721.8674052680963) rotate(0 -32.196951940474094 4.5367167061377245)"><path d="M-42.48 -3.91 C-48.71 1.55, -57.38 4.75, -65.05 6.83 M-42.48 -3.91 C-49.04 -0.86, -58.07 3.57, -65.05 6.83" stroke="#1e1e1e" stroke-width="2" fill="none"></path></g><g transform="translate(346.2107064825461 721.8674052680963) rotate(0 -32.196951940474094 4.5367167061377245)"><path d="M-40.85 13.11 C-47.8 12.67, -57.03 9.96, -65.05 6.83 M-40.85 13.11 C-48.1 10.58, -57.66 9.41, -65.05 6.83" stroke="#1e1e1e" stroke-width="2" fill="none"></path></g></g><mask></mask><g stroke-linecap="round" transform="translate(110.56349206349273 724.3194444444441) rotate(0 92.75 55.75)"><path d="M57.9 4.87 C69.11 1.12, 85.6 -1.02, 98.97 -0.46 C112.35 0.09, 126.4 4.03, 138.15 8.21 C149.9 12.38, 161.73 18.05, 169.46 24.58 C177.2 31.11, 182.47 39.48, 184.55 47.36 C186.63 55.24, 185.75 64.12, 181.92 71.86 C178.1 79.61, 170.74 87.92, 161.61 93.83 C152.48 99.75, 139.61 104.56, 127.14 107.38 C114.66 110.19, 100.25 111.33, 86.77 110.72 C73.28 110.12, 57.82 107.69, 46.23 103.74 C34.64 99.79, 24.61 93.55, 17.21 87 C9.81 80.46, 4.11 72.34, 1.83 64.46 C-0.45 56.58, -0.25 47.45, 3.53 39.72 C7.32 31.99, 13.85 24.28, 24.55 18.07 C35.24 11.86, 58.77 5.29, 67.7 2.48 C76.64 -0.32, 77.86 0.26, 78.16 1.22 M93.4 0.62 C106.37 -0.41, 122.7 1.49, 134.96 4.73 C147.22 7.97, 158.72 13.37, 166.96 20.07 C175.2 26.78, 181.93 36.84, 184.41 44.98 C186.89 53.13, 185.18 61.18, 181.85 68.93 C178.52 76.69, 172.86 85.42, 164.45 91.52 C156.04 97.62, 143.54 101.96, 131.41 105.53 C119.28 109.09, 104.9 113.08, 91.66 112.9 C78.42 112.72, 63.94 108.24, 51.96 104.43 C39.98 100.63, 27.93 96.01, 19.78 90.07 C11.62 84.13, 6.11 76.62, 3.05 68.77 C-0.01 60.93, -1.72 50.98, 1.41 43.02 C4.54 35.05, 13.22 27.04, 21.83 20.99 C30.44 14.93, 40.91 10.33, 53.08 6.71 C65.26 3.08, 88.17 0.43, 94.86 -0.75 C101.56 -1.92, 93.51 -1.47, 93.26 -0.34" stroke="#1971c2" stroke-width="2" fill="none"></path></g><g transform="translate(145.81938022269833 755.148241393294) rotate(0 57.40995788574219 25)"><text x="57.40995788574219" y="17.52" font-family="Virgil, Segoe UI Emoji" font-size="20px" fill="#1971c2" text-anchor="middle" style="white-space: pre;" direction="ltr" dominant-baseline="alphabetic">Repay with </text><text x="57.40995788574219" y="42.519999999999996" font-family="Virgil, Segoe UI Emoji" font-size="20px" fill="#1971c2" text-anchor="middle" style="white-space: pre;" direction="ltr" dominant-baseline="alphabetic">Collateral</text></g><g stroke-linecap="round" transform="translate(146.98214285714215 889.8452380952378) rotate(0 92.75 55.75)"><path d="M61.25 4.1 C72.82 0.81, 88.3 0.56, 101.67 1.14 C115.04 1.73, 130.06 3.64, 141.47 7.61 C152.89 11.58, 163.12 18.26, 170.18 24.99 C177.24 31.72, 182.16 39.8, 183.82 48 C185.49 56.2, 184.25 66.56, 180.17 74.2 C176.1 81.85, 168.76 88.25, 159.36 93.86 C149.96 99.46, 136.45 104.91, 123.77 107.82 C111.09 110.73, 96.58 112.05, 83.27 111.32 C69.97 110.59, 55.41 107.63, 43.94 103.42 C32.47 99.21, 21.66 92.85, 14.46 86.08 C7.25 79.3, 2.35 70.66, 0.71 62.78 C-0.93 54.9, 0.46 46.4, 4.63 38.81 C8.81 31.22, 15.14 23.44, 25.75 17.24 C36.36 11.04, 60.1 4.05, 68.3 1.6 C76.5 -0.86, 74.71 1.67, 74.94 2.52 M55.35 4.01 C66.28 -0.19, 81.05 -1.57, 94.49 -1.42 C107.94 -1.27, 124.04 1.09, 136.01 4.91 C147.98 8.72, 158.57 14.86, 166.29 21.45 C174.02 28.05, 179.67 36.59, 182.38 44.47 C185.09 52.34, 185.87 60.87, 182.55 68.67 C179.23 76.48, 170.97 84.9, 162.45 91.3 C153.92 97.7, 143.63 103.59, 131.4 107.1 C119.18 110.6, 102.72 112.61, 89.11 112.33 C75.49 112.06, 61.62 109.11, 49.72 105.45 C37.82 101.78, 25.54 96.71, 17.69 90.35 C9.84 83.99, 4.83 75.46, 2.6 67.27 C0.37 59.08, 0.96 48.89, 4.32 41.2 C7.68 33.51, 14.1 27.31, 22.77 21.13 C31.45 14.96, 50.93 6.93, 56.37 4.16 C61.82 1.4, 55.02 3.63, 55.45 4.56" stroke="#1971c2" stroke-width="2" fill="none"></path></g><g transform="translate(191.01802979564462 920.6740350440875) rotate(0 48.62995910644531 25)"><text x="48.62995910644531" y="17.52" font-family="Virgil, Segoe UI Emoji" font-size="20px" fill="#1971c2" text-anchor="middle" style="white-space: pre;" direction="ltr" dominant-baseline="alphabetic">Swap </text><text x="48.62995910644531" y="42.519999999999996" font-family="Virgil, Segoe UI Emoji" font-size="20px" fill="#1971c2" text-anchor="middle" style="white-space: pre;" direction="ltr" dominant-baseline="alphabetic">Collateral</text></g><g stroke-linecap="round" transform="translate(802.5674603174607 873.4960317460316) rotate(0 115.05158730158746 42.14285714285711)"><path d="M161.4 2.81 C175.43 4.47, 189.38 8.83, 199.85 13.22 C210.32 17.62, 219.12 23.66, 224.21 29.16 C229.3 34.66, 231.8 40.73, 230.37 46.25 C228.95 51.77, 223.55 57.21, 215.67 62.27 C207.79 67.32, 195.89 73.03, 183.11 76.58 C170.33 80.14, 154.18 82.35, 139 83.61 C123.82 84.86, 107.19 85.32, 92.03 84.11 C76.88 82.91, 60.95 79.87, 48.08 76.38 C35.21 72.89, 22.74 68.16, 14.79 63.16 C6.84 58.16, 2.05 51.95, 0.36 46.36 C-1.33 40.78, -0.09 34.9, 4.64 29.64 C9.37 24.38, 18.31 19.03, 28.74 14.81 C39.18 10.58, 52.88 6.82, 67.25 4.26 C81.63 1.71, 96.52 -0.94, 115.01 -0.52 C133.49 -0.11, 165.61 4.68, 178.14 6.74 C190.68 8.8, 191.3 11.26, 190.22 11.84 M80.74 1.98 C94.91 0.08, 115.52 0.23, 131.16 1.13 C146.81 2.03, 161.42 4.38, 174.62 7.38 C187.81 10.39, 201.46 14.9, 210.34 19.16 C219.22 23.43, 225.02 27.36, 227.89 32.98 C230.76 38.59, 230.99 47.2, 227.56 52.87 C224.14 58.53, 216.9 62.76, 207.37 66.97 C197.85 71.19, 184.03 75.4, 170.41 78.18 C156.79 80.95, 141.34 83.12, 125.66 83.64 C109.97 84.15, 91.44 83.04, 76.28 81.25 C61.12 79.45, 46.16 76.68, 34.7 72.87 C23.25 69.06, 13.52 63.61, 7.55 58.37 C1.57 53.13, -1.67 47.29, -1.15 41.43 C-0.63 35.57, 3.61 28.29, 10.67 23.21 C17.72 18.13, 29.04 14.39, 41.17 10.94 C53.29 7.48, 76.35 3.76, 83.42 2.49 C90.49 1.21, 83.13 2.75, 83.61 3.28" stroke="#2f9e44" stroke-width="2" fill="none"></path></g><g transform="translate(842.6253669561165 903.3393888245985) rotate(0 75.13992309570312 12.5)"><text x="75.13992309570312" y="17.52" font-family="Virgil, Segoe UI Emoji" font-size="20px" fill="#2f9e44" text-anchor="middle" style="white-space: pre;" direction="ltr" dominant-baseline="alphabetic">Liquis (Options)</text></g><g stroke-linecap="round" transform="translate(360.8928571428573 663.1249999999999) rotate(0 109.44444444444446 50.83333333333337)"><path d="M25.42 0 C82.21 0.55, 138.79 -0.04, 193.47 0 M25.42 0 C59.21 1.26, 93.45 1.3, 193.47 0 M193.47 0 C211.9 0.79, 217.33 9.08, 218.89 25.42 M193.47 0 C208.93 -1.68, 220.37 9.07, 218.89 25.42 M218.89 25.42 C218.17 36.47, 217.58 46.65, 218.89 76.25 M218.89 25.42 C219.53 40.74, 219.92 54.82, 218.89 76.25 M218.89 76.25 C219.09 94.42, 212.01 100.01, 193.47 101.67 M218.89 76.25 C218.19 91.91, 209.79 102.94, 193.47 101.67 M193.47 101.67 C133.07 102.25, 71.74 99.93, 25.42 101.67 M193.47 101.67 C138.04 101.73, 81.3 101.12, 25.42 101.67 M25.42 101.67 C9.65 102.18, -0.81 91.67, 0 76.25 M25.42 101.67 C9.03 102.17, 0.74 93.36, 0 76.25 M0 76.25 C0.43 57.23, 0.85 35.97, 0 25.42 M0 76.25 C-0.79 63.2, -0.97 50.19, 0 25.42 M0 25.42 C-1.13 10, 7.9 -0.2, 25.42 0 M0 25.42 C-0.52 8.84, 7.82 -0.69, 25.42 0" stroke="#1971c2" stroke-width="2" fill="none"></path></g><g transform="translate(396.6773589603486 688.9583333333333) rotate(0 73.65994262695312 25)"><text x="73.65994262695312" y="17.52" font-family="Virgil, Segoe UI Emoji" font-size="20px" fill="#1971c2" text-anchor="middle" style="white-space: pre;" direction="ltr" dominant-baseline="alphabetic">Aave Liquidity </text><text x="73.65994262695312" y="42.519999999999996" font-family="Virgil, Segoe UI Emoji" font-size="20px" fill="#1971c2" text-anchor="middle" style="white-space: pre;" direction="ltr" dominant-baseline="alphabetic">Management</text></g><g stroke-linecap="round"><g transform="translate(373.44315893951745 785.5555555555554) rotate(0 -43.74307680118588 42.860155920983345)"><path d="M1 -0.06 C-13.62 14.25, -73.85 71.25, -88.48 85.68 M0.06 -1.13 C-14.12 13.32, -71.7 72.01, -86.23 86.85" stroke="#1e1e1e" stroke-width="2" fill="none"></path></g><g transform="translate(373.44315893951745 785.5555555555554) rotate(0 -43.74307680118588 42.860155920983345)"><path d="M-75.89 64.09 C-78.44 68.08, -81.95 76.25, -86.23 86.85 M-75.89 64.09 C-78.47 71.17, -82.93 77.31, -86.23 86.85" stroke="#1e1e1e" stroke-width="2" fill="none"></path></g><g transform="translate(373.44315893951745 785.5555555555554) rotate(0 -43.74307680118588 42.860155920983345)"><path d="M-63.68 76.06 C-69.1 77.33, -75.48 82.68, -86.23 86.85 M-63.68 76.06 C-70.16 79.4, -78.42 81.8, -86.23 86.85" stroke="#1e1e1e" stroke-width="2" fill="none"></path></g></g><mask></mask><g stroke-linecap="round"><g transform="translate(600.5256789791661 764.1791041928576) rotate(0 27.626789153837876 54.275789119723584)"><path d="M-0.05 -0.09 C8.99 18.3, 45.35 91.56, 54.4 109.74 M-1.53 -1.19 C7.89 16.93, 47.08 89.52, 56.78 108.12" stroke="#1e1e1e" stroke-width="2" fill="none"></path></g><g transform="translate(600.5256789791661 764.1791041928576) rotate(0 27.626789153837876 54.275789119723584)"><path d="M38.21 91.39 C43.79 95.61, 51.37 100.53, 56.78 108.12 M38.21 91.39 C43.76 96.88, 50.9 102.91, 56.78 108.12" stroke="#1e1e1e" stroke-width="2" fill="none"></path></g><g transform="translate(600.5256789791661 764.1791041928576) rotate(0 27.626789153837876 54.275789119723584)"><path d="M53.31 83.37 C54.12 90.09, 56.97 97.52, 56.78 108.12 M53.31 83.37 C53.99 91.33, 56.3 99.93, 56.78 108.12" stroke="#1e1e1e" stroke-width="2" fill="none"></path></g></g><mask></mask><g stroke-linecap="round" transform="translate(351.1984126984126 926.660714285714) rotate(0 92.75 60)"><path d="M100.36 -0.5 C112.59 -0.98, 126.34 3.12, 137.18 7.16 C148.02 11.2, 157.87 17.26, 165.4 23.73 C172.93 30.2, 179.36 38.18, 182.36 45.97 C185.36 53.76, 185.72 62.59, 183.41 70.46 C181.1 78.32, 175.35 86.38, 168.47 93.18 C161.59 99.98, 152.67 107.03, 142.13 111.25 C131.6 115.47, 117.91 117.54, 105.26 118.49 C92.6 119.44, 78.45 119.02, 66.23 116.93 C54 114.85, 41.52 111.25, 31.92 105.97 C22.31 100.69, 13.76 92.7, 8.61 85.25 C3.46 77.8, 1.18 69.19, 1.02 61.26 C0.87 53.33, 3.08 44.95, 7.71 37.67 C12.34 30.38, 19.7 23.23, 28.79 17.55 C37.89 11.86, 47.61 6.14, 62.3 3.56 C76.99 0.97, 105.59 1.6, 116.93 2.02 C128.27 2.45, 130.79 5.16, 130.31 6.12 M53.07 4.36 C63.41 0.28, 77.87 1.36, 90.73 1.23 C103.58 1.1, 118.55 0.4, 130.19 3.6 C141.84 6.79, 152.42 14.42, 160.6 20.4 C168.78 26.39, 175.2 32.2, 179.27 39.51 C183.34 46.81, 185.87 55.81, 185.03 64.25 C184.19 72.69, 180.36 82.74, 174.23 90.17 C168.11 97.6, 158.2 104.25, 148.28 108.83 C138.37 113.41, 126.8 116.2, 114.73 117.64 C102.66 119.09, 88.64 118.75, 75.88 117.51 C63.12 116.28, 48.75 114.88, 38.19 110.24 C27.62 105.6, 18.96 96.63, 12.49 89.64 C6.02 82.66, 0.66 76.4, -0.64 68.34 C-1.93 60.28, 0.8 49.15, 4.73 41.3 C8.65 33.46, 14.84 27.31, 22.91 21.26 C30.97 15.2, 47.66 7.46, 53.12 5 C58.57 2.54, 54.87 5.42, 55.63 6.52" stroke="#1971c2" stroke-width="2" fill="none"></path></g><g transform="translate(384.354302383497 949.234307414521) rotate(0 59.50995635986328 37.5)"><text x="59.50995635986328" y="17.52" font-family="Virgil, Segoe UI Emoji" font-size="20px" fill="#1971c2" text-anchor="middle" style="white-space: pre;" direction="ltr" dominant-baseline="alphabetic">Migrate </text><text x="59.50995635986328" y="42.519999999999996" font-family="Virgil, Segoe UI Emoji" font-size="20px" fill="#1971c2" text-anchor="middle" style="white-space: pre;" direction="ltr" dominant-baseline="alphabetic">from V2 to </text><text x="59.50995635986328" y="67.52" font-family="Virgil, Segoe UI Emoji" font-size="20px" fill="#1971c2" text-anchor="middle" style="white-space: pre;" direction="ltr" dominant-baseline="alphabetic">V3</text></g><g stroke-linecap="round"><g transform="translate(469.8098121296834 785.6299388016669) rotate(0 -9.35343315890708 57.24129197709806)"><path d="M-0.04 -0.32 C-3.07 18.8, -14.94 95.67, -17.9 115.08 M-1.51 -1.53 C-4.7 17.66, -15.87 96.2, -18.67 116.02" stroke="#1e1e1e" stroke-width="2" fill="none"></path></g><g transform="translate(469.8098121296834 785.6299388016669) rotate(0 -9.35343315890708 57.24129197709806)"><path d="M-23.83 91.55 C-22.62 100.03, -22.32 108.12, -18.67 116.02 M-23.83 91.55 C-21.72 99.61, -20.71 106.28, -18.67 116.02" stroke="#1e1e1e" stroke-width="2" fill="none"></path></g><g transform="translate(469.8098121296834 785.6299388016669) rotate(0 -9.35343315890708 57.24129197709806)"><path d="M-6.9 93.96 C-11.18 101.66, -16.36 108.97, -18.67 116.02 M-6.9 93.96 C-9.72 101.24, -13.64 107.21, -18.67 116.02" stroke="#1e1e1e" stroke-width="2" fill="none"></path></g></g><mask></mask><g stroke-linecap="round" transform="translate(771.2698412698414 662.9464285714284) rotate(0 147.36607142857133 49.19642857142861)"><path d="M24.6 0 C79.79 0.51, 135.63 0.64, 270.13 0 C283.28 3.49, 295.25 5.76, 294.73 24.6 C295.67 35.33, 295.96 42.95, 294.73 73.79 C297.52 86.88, 287.51 100, 270.13 98.39 C180.36 100.06, 92.92 100.32, 24.6 98.39 C5.48 98.84, -1.83 91.69, 0 73.79 C-2.61 59.39, -0.13 48.2, 0 24.6 C-1.02 7.52, 7.51 -0.96, 24.6 0" stroke="none" stroke-width="0" fill="#b2f2bb"></path><path d="M24.6 0 C93.69 -2.1, 162.11 -1.21, 270.13 0 M24.6 0 C120.92 0.69, 216.83 0.42, 270.13 0 M270.13 0 C285.9 -0.38, 292.97 8.26, 294.73 24.6 M270.13 0 C285.46 -2.23, 294.58 10.04, 294.73 24.6 M294.73 24.6 C293.74 37, 294.58 48.52, 294.73 73.79 M294.73 24.6 C294.49 40.23, 295.08 53.75, 294.73 73.79 M294.73 73.79 C296.29 89.07, 285.67 100.19, 270.13 98.39 M294.73 73.79 C293.89 92.23, 284.76 100.1, 270.13 98.39 M270.13 98.39 C174.2 98.75, 79.63 98.85, 24.6 98.39 M270.13 98.39 C186.9 97.54, 105.42 97.66, 24.6 98.39 M24.6 98.39 C6.32 100.01, 0.58 91.32, 0 73.79 M24.6 98.39 C8.03 96.76, 2.07 88.45, 0 73.79 M0 73.79 C-0.24 54.98, -1.57 35.93, 0 24.6 M0 73.79 C0.2 63.03, -0.99 51.11, 0 24.6 M0 24.6 C-1.33 7.93, 8.76 1.23, 24.6 0 M0 24.6 C-1.36 9.75, 7.66 1.77, 24.6 0" stroke="#1e1e1e" stroke-width="2" fill="none"></path></g><g transform="translate(843.0859783112057 699.6428571428571) rotate(0 75.54993438720703 12.5)"><text x="75.54993438720703" y="17.52" font-family="Virgil, Segoe UI Emoji" font-size="20px" fill="#1e1e1e" text-anchor="middle" style="white-space: pre;" direction="ltr" dominant-baseline="alphabetic">Protocol Usage</text></g><g stroke-linecap="round"><g transform="translate(926.3074604075462 528.9757640777714) rotate(0 -0.1148581864146081 62.63777669168252)"><path d="M0.58 -0.73 C0.4 20.01, 0.26 103.63, -0.15 124.41 M-0.57 1.51 C-0.92 22.46, -0.84 105.4, -0.64 126" stroke="#1e1e1e" stroke-width="2" fill="none"></path></g><g transform="translate(926.3074604075462 528.9757640777714) rotate(0 -0.1148581864146081 62.63777669168252)"><path d="M-9.29 102.55 C-7.22 112.86, -2.55 118.91, -0.64 126 M-9.29 102.55 C-6.37 109.09, -3.72 116.03, -0.64 126" stroke="#1e1e1e" stroke-width="2" fill="none"></path></g><g transform="translate(926.3074604075462 528.9757640777714) rotate(0 -0.1148581864146081 62.63777669168252)"><path d="M7.81 102.47 C3.38 112.9, 1.55 118.98, -0.64 126 M7.81 102.47 C6.08 108.91, 4.09 115.88, -0.64 126" stroke="#1e1e1e" stroke-width="2" fill="none"></path></g></g><mask></mask><g stroke-linecap="round"><g transform="translate(1079.6626984126983 743.7602141096648) rotate(0 31.991742357334715 13.358362193267965)"><path d="M-0.54 -1.01 C10.28 3.79, 53.89 23.1, 64.52 27.72 M1.38 1.08 C12.14 5.63, 53.8 21.51, 63.93 25.98" stroke="#1e1e1e" stroke-width="2" fill="none"></path></g><g transform="translate(1079.6626984126983 743.7602141096648) rotate(0 31.991742357334715 13.358362193267965)"><path d="M38.95 25.04 C43.95 26.54, 53.51 24.69, 63.93 25.98 M38.95 25.04 C46.26 25.28, 52.94 25.81, 63.93 25.98" stroke="#1e1e1e" stroke-width="2" fill="none"></path></g><g transform="translate(1079.6626984126983 743.7602141096648) rotate(0 31.991742357334715 13.358362193267965)"><path d="M45.39 9.2 C48.52 14.92, 56.36 17.3, 63.93 25.98 M45.39 9.2 C50.79 13.85, 55.7 18.75, 63.93 25.98" stroke="#1e1e1e" stroke-width="2" fill="none"></path></g></g><mask></mask><g stroke-linecap="round" transform="translate(1081.396825396825 782.8571428571429) rotate(0 115.05158730158746 42.14285714285711)"><path d="M83.48 2.63 C97.06 0.32, 114.65 -0.88, 130.08 -0.3 C145.51 0.28, 162.65 2.83, 176.07 6.11 C189.49 9.39, 201.75 14.7, 210.61 19.38 C219.46 24.05, 226.36 28.61, 229.2 34.18 C232.05 39.75, 231.6 47.22, 227.68 52.81 C223.76 58.39, 215.37 63.16, 205.67 67.7 C195.97 72.23, 183.35 77.27, 169.47 80.03 C155.59 82.78, 137.88 83.83, 122.4 84.24 C106.92 84.65, 91.23 84.39, 76.6 82.46 C61.97 80.53, 45.89 76.63, 34.62 72.68 C23.35 68.74, 14.77 64.18, 8.95 58.78 C3.13 53.38, -0.6 46.08, -0.28 40.28 C0.03 34.48, 4.01 29.11, 10.84 23.99 C17.67 18.87, 26.9 13.53, 40.69 9.55 C54.48 5.57, 83.08 1.52, 93.58 0.1 C104.09 -1.32, 103.38 0.36, 103.74 1.04 M156.98 2.18 C171.22 3.55, 184.64 7.28, 195.42 11.48 C206.21 15.68, 215.72 21.97, 221.68 27.38 C227.64 32.79, 231.67 38.06, 231.16 43.94 C230.66 49.82, 225.91 57.74, 218.66 62.67 C211.4 67.6, 200.09 70, 187.64 73.5 C175.19 77, 158.89 82, 143.97 83.67 C129.05 85.35, 113.45 84.45, 98.11 83.54 C82.77 82.64, 65.22 81.32, 51.93 78.25 C38.64 75.18, 26.66 69.85, 18.38 65.12 C10.1 60.4, 4.43 55.79, 2.23 49.9 C0.03 44.01, 1.31 35.55, 5.18 29.79 C9.05 24.04, 15.65 19.59, 25.43 15.37 C35.21 11.14, 49.8 6.83, 63.86 4.44 C77.92 2.04, 94.23 1.52, 109.78 1.01 C125.32 0.5, 149.4 0.79, 157.1 1.38 C164.81 1.97, 156.92 3.55, 156.02 4.56" stroke="#2f9e44" stroke-width="2" fill="none"></path></g><g transform="translate(1152.4046908367504 812.7004999357098) rotate(0 44.189964294433594 12.5)"><text x="44.189964294433594" y="17.52" font-family="Virgil, Segoe UI Emoji" font-size="20px" fill="#2f9e44" text-anchor="middle" style="white-space: pre;" direction="ltr" dominant-baseline="alphabetic">Contango</text></g><g stroke-linecap="round"><g transform="translate(921.5216961315616 778.3379079729614) rotate(0 2.2867727351793974 38.62536255134836)"><path d="M-0.43 0.64 C0.45 13.53, 4.34 63.53, 5.01 76.4 M1.54 -0.07 C2.33 13, 3.5 64.08, 4.22 77.32" stroke="#1e1e1e" stroke-width="2" fill="none"></path></g><g transform="translate(921.5216961315616 778.3379079729614) rotate(0 2.2867727351793974 38.62536255134836)"><path d="M-5.2 54.16 C-1.73 61.05, -2.19 64.97, 4.22 77.32 M-5.2 54.16 C-1.61 62.19, 0.7 69.79, 4.22 77.32" stroke="#1e1e1e" stroke-width="2" fill="none"></path></g><g transform="translate(921.5216961315616 778.3379079729614) rotate(0 2.2867727351793974 38.62536255134836)"><path d="M11.89 53.52 C10.68 60.52, 5.54 64.62, 4.22 77.32 M11.89 53.52 C9.91 61.74, 6.65 69.54, 4.22 77.32" stroke="#1e1e1e" stroke-width="2" fill="none"></path></g></g><mask></mask><g stroke-linecap="round"><g transform="translate(1193.2899108818524 523.8274911759552) rotate(0 -0.15180877804755255 -72.11136339058095)"><path d="M1.09 0.16 C0.82 -23.78, -1.05 -120.55, -1.39 -144.39 M0.2 -0.8 C0.27 -24.51, 1.11 -119.08, 0.73 -143.05" stroke="#1e1e1e" stroke-width="2" fill="none"></path></g><g transform="translate(1193.2899108818524 523.8274911759552) rotate(0 -0.15180877804755255 -72.11136339058095)"><path d="M9.32 -119.57 C7 -128.82, 3.37 -135.51, 0.73 -143.05 M9.32 -119.57 C5.25 -128.35, 2.73 -138.65, 0.73 -143.05" stroke="#1e1e1e" stroke-width="2" fill="none"></path></g><g transform="translate(1193.2899108818524 523.8274911759552) rotate(0 -0.15180877804755255 -72.11136339058095)"><path d="M-7.78 -119.54 C-4.67 -128.96, -2.87 -135.66, 0.73 -143.05 M-7.78 -119.54 C-5.09 -128.46, -0.84 -138.77, 0.73 -143.05" stroke="#1e1e1e" stroke-width="2" fill="none"></path></g></g><mask></mask><g stroke-linecap="round" transform="translate(1100.019841269841 267.85714285714295) rotate(0 96.78571428571422 47.500000000000114)"><path d="M23.75 0 C76.97 -1.13, 123.45 -1.08, 169.82 0 C183.73 3.54, 197.02 7.86, 193.57 23.75 C190.93 34.99, 191.59 50.25, 193.57 71.25 C191.95 83.99, 182.35 96.04, 169.82 95 C141.75 97.53, 109.78 95.67, 23.75 95 C7.23 96.41, 0.05 85.31, 0 71.25 C0.99 51.39, 1.33 34.73, 0 23.75 C-2.26 6.16, 6.29 1.72, 23.75 0" stroke="none" stroke-width="0" fill="#ffc9c9"></path><path d="M23.75 0 C78.73 2.22, 136.4 2.33, 169.82 0 M23.75 0 C68.54 0.24, 112.27 -0.99, 169.82 0 M169.82 0 C183.78 0.48, 194.88 9.91, 193.57 23.75 M169.82 0 C183.63 1.31, 194.96 7.51, 193.57 23.75 M193.57 23.75 C193.18 33.94, 192.94 45.48, 193.57 71.25 M193.57 23.75 C193.47 36.81, 193.82 48.08, 193.57 71.25 M193.57 71.25 C193.73 87.27, 185.3 96.21, 169.82 95 M193.57 71.25 C191.54 85.48, 184.15 95.92, 169.82 95 M169.82 95 C121.82 94.49, 77.15 97.6, 23.75 95 M169.82 95 C127.79 94.83, 85.48 94.48, 23.75 95 M23.75 95 C7.35 96.38, 1.65 86.85, 0 71.25 M23.75 95 C10.19 93.46, 0.63 87.47, 0 71.25 M0 71.25 C0.69 60.23, 0.59 49.89, 0 23.75 M0 71.25 C0.26 54.06, -0.68 35.65, 0 23.75 M0 23.75 C0.3 9.13, 7.97 -1.88, 23.75 0 M0 23.75 C-2.04 7.29, 6.94 0.5, 23.75 0" stroke="#1e1e1e" stroke-width="2" fill="none"></path></g><g transform="translate(1151.5755979749888 302.85714285714306) rotate(0 45.229957580566406 12.5)"><text x="45.229957580566406" y="17.52" font-family="Virgil, Segoe UI Emoji" font-size="20px" fill="#1e1e1e" text-anchor="middle" style="white-space: pre;" direction="ltr" dominant-baseline="alphabetic">Arbitrage</text></g><g stroke-linecap="round"><g transform="translate(1197.081005706829 247.85714285714317) rotate(0 -0.5023811705057142 -55.869654868566016)"><path d="M0.71 -0.9 C0.38 -19.56, -0.78 -92.67, -1.32 -111.05 M-0.37 1.24 C-0.83 -17.88, -1.2 -94.48, -1.72 -112.98" stroke="#1e1e1e" stroke-width="2" fill="none"></path></g><g transform="translate(1197.081005706829 247.85714285714317) rotate(0 -0.5023811705057142 -55.869654868566016)"><path d="M7.18 -89.62 C2.34 -96.1, 1.29 -106.5, -1.72 -112.98 M7.18 -89.62 C4.71 -97.42, 1.62 -104.5, -1.72 -112.98" stroke="#1e1e1e" stroke-width="2" fill="none"></path></g><g transform="translate(1197.081005706829 247.85714285714317) rotate(0 -0.5023811705057142 -55.869654868566016)"><path d="M-9.92 -89.37 C-8.69 -96.04, -3.67 -106.52, -1.72 -112.98 M-9.92 -89.37 C-6.94 -97.38, -4.58 -104.54, -1.72 -112.98" stroke="#1e1e1e" stroke-width="2" fill="none"></path></g></g><mask></mask><g stroke-linecap="round" transform="translate(1096.4484126984128 10) rotate(0 92.14285714285711 59.28571428571422)"><path d="M52.97 4.85 C63.42 0.56, 78.73 -0.43, 91.11 -0.37 C103.5 -0.3, 116.01 2.15, 127.26 5.24 C138.52 8.34, 150.12 12.35, 158.65 18.21 C167.18 24.06, 174.29 32.84, 178.43 40.35 C182.58 47.87, 184.58 55.5, 183.55 63.3 C182.52 71.09, 178.31 79.81, 172.26 87.13 C166.21 94.45, 156.92 102.24, 147.23 107.21 C137.55 112.18, 126.37 115.08, 114.15 116.94 C101.92 118.81, 86.16 119.78, 73.87 118.4 C61.58 117.01, 50.6 113.4, 40.38 108.66 C30.16 103.92, 19.27 96.83, 12.54 89.95 C5.81 83.07, 1.54 75.29, 0 67.37 C-1.54 59.46, -0.44 50.26, 3.31 42.45 C7.07 34.63, 14.04 26.67, 22.54 20.47 C31.04 14.28, 48.29 7.83, 54.29 5.27 C60.29 2.71, 57.9 4.25, 58.54 5.12 M99.97 1.24 C112.26 0.95, 127.09 4.36, 138.1 8.15 C149.1 11.95, 158.78 17.5, 165.99 24 C173.19 30.5, 178.79 39.26, 181.33 47.15 C183.86 55.03, 183.3 63.57, 181.17 71.31 C179.04 79.06, 175.32 87.04, 168.55 93.6 C161.78 100.16, 151.48 106.63, 140.56 110.65 C129.64 114.67, 115.33 116.74, 103.03 117.74 C90.73 118.75, 78.67 118.73, 66.76 116.68 C54.85 114.64, 41.15 110.65, 31.55 105.47 C21.95 100.3, 14.18 93.16, 9.14 85.63 C4.1 78.09, 1.46 68.71, 1.32 60.25 C1.17 51.78, 3.75 42.38, 8.29 34.83 C12.83 27.28, 19.57 20.09, 28.55 14.94 C37.53 9.79, 50.34 6.3, 62.18 3.93 C74.02 1.55, 93.15 1.23, 99.59 0.7 C106.02 0.17, 100.83 -0.31, 100.78 0.75" stroke="#e03131" stroke-width="2" fill="none"></path></g><g transform="translate(1130.4513162279886 56.86438368679751) rotate(0 58.13995361328125 12.5)"><text x="58.13995361328125" y="17.52" font-family="Virgil, Segoe UI Emoji" font-size="20px" fill="#e03131" text-anchor="middle" style="white-space: pre;" direction="ltr" dominant-baseline="alphabetic">Same Token</text></g><g stroke-linecap="round"><g transform="translate(1582.8769841269839 527.1428571428573) rotate(0 1.3874754275957457 56.8010774408192)"><path d="M-0.63 -1.07 C-0.26 17.99, 2.65 93.99, 3.41 113.29 M1.23 0.98 C1.4 20.31, 2.34 96.01, 2.76 114.68" stroke="#1e1e1e" stroke-width="2" fill="none"></path></g><g transform="translate(1582.8769841269839 527.1428571428573) rotate(0 1.3874754275957457 56.8010774408192)"><path d="M-6.18 91.33 C-4.63 101.59, 0.23 111.72, 2.76 114.68 M-6.18 91.33 C-2.8 100.52, 1.6 109.62, 2.76 114.68" stroke="#1e1e1e" stroke-width="2" fill="none"></path></g><g transform="translate(1582.8769841269839 527.1428571428573) rotate(0 1.3874754275957457 56.8010774408192)"><path d="M10.92 91.04 C5.69 101.33, 3.77 111.57, 2.76 114.68 M10.92 91.04 C7.51 100.47, 5.13 109.68, 2.76 114.68" stroke="#1e1e1e" stroke-width="2" fill="none"></path></g></g><mask></mask><g stroke-linecap="round" transform="translate(1439.305555555555 654.285714285714) rotate(0 154.28571428571422 49.28571428571428)"><path d="M24.64 0 C120.81 2.94, 219.7 3.78, 283.93 0 C297.81 2.14, 309.19 10.37, 308.57 24.64 C310 39.08, 306.94 48.75, 308.57 73.93 C312.01 93.44, 303.78 98.8, 283.93 98.57 C219.11 99.81, 155.78 95.01, 24.64 98.57 C5.58 101.47, -3.06 92.76, 0 73.93 C3.45 65.75, -0.5 49, 0 24.64 C-0.16 8.76, 10.84 3.23, 24.64 0" stroke="none" stroke-width="0" fill="#ffec99"></path><path d="M24.64 0 C129.52 1.87, 230.95 3, 283.93 0 M24.64 0 C82.16 0.79, 139.74 0.39, 283.93 0 M283.93 0 C299.33 1.39, 307.04 10.03, 308.57 24.64 M283.93 0 C302.45 0.91, 307.72 10.12, 308.57 24.64 M308.57 24.64 C309.75 37.39, 310.44 49.81, 308.57 73.93 M308.57 24.64 C309.42 41.87, 309.1 57.37, 308.57 73.93 M308.57 73.93 C307.83 90.31, 298.7 98.26, 283.93 98.57 M308.57 73.93 C307.56 91.98, 299.11 99.2, 283.93 98.57 M283.93 98.57 C185.3 98.89, 87.68 97.46, 24.64 98.57 M283.93 98.57 C184.4 96.65, 84.79 97.81, 24.64 98.57 M24.64 98.57 C6.72 98.11, -0.72 90.19, 0 73.93 M24.64 98.57 C8.33 96.38, 0.34 91.45, 0 73.93 M0 73.93 C-0.8 63, 1.23 52.86, 0 24.64 M0 73.93 C0.42 56.91, -0.32 38.83, 0 24.64 M0 24.64 C-0.52 6.82, 8.24 -1.6, 24.64 0 M0 24.64 C-0.98 7.1, 9.4 1.68, 24.64 0" stroke="#1e1e1e" stroke-width="2" fill="none"></path></g><g transform="translate(1554.8613122607028 691.0714285714282) rotate(0 38.729957580566406 12.5)"><text x="38.729957580566406" y="17.52" font-family="Virgil, Segoe UI Emoji" font-size="20px" fill="#1e1e1e" text-anchor="middle" style="white-space: pre;" direction="ltr" dominant-baseline="alphabetic">Exploits</text></g><g stroke-linecap="round"><g transform="translate(756.2498796040845 715.8334147849397) rotate(0 -81.50052578100252 -0.7647575763149916)"><path d="M0.41 -0.23 C-26.56 -0.4, -135.11 -1.31, -162.26 -1.29 M-0.84 -1.4 C-27.96 -1.4, -136.28 -0.01, -163.41 -0.14" stroke="#1e1e1e" stroke-width="2" fill="none"></path></g><g transform="translate(756.2498796040845 715.8334147849397) rotate(0 -81.50052578100252 -0.7647575763149916)"><path d="M-139.96 -8.81 C-146.51 -7.09, -153.52 -5.21, -163.41 -0.14 M-139.96 -8.81 C-147.28 -6.01, -156.03 -4.13, -163.41 -0.14" stroke="#1e1e1e" stroke-width="2" fill="none"></path></g><g transform="translate(756.2498796040845 715.8334147849397) rotate(0 -81.50052578100252 -0.7647575763149916)"><path d="M-139.87 8.29 C-146.41 5.53, -153.43 2.92, -163.41 -0.14 M-139.87 8.29 C-147.21 5.33, -155.99 1.46, -163.41 -0.14" stroke="#1e1e1e" stroke-width="2" fill="none"></path></g></g><mask></mask></svg>